<?xml version="1.0" encoding="UTF-8"?>
<svg version="1.1" xmlns="http://www.w3.org/2000/svg" width="256" height="256">
<path d="M0 0 C84.48 0 168.96 0 256 0 C256 84.48 256 168.96 256 256 C171.52 256 87.04 256 0 256 C0 171.52 0 87.04 0 0 Z " fill="#FDFDFD" transform="translate(0,0)"/>
<path d="M0 0 C-1.25092864 3.75278592 -2.74857418 4.5594679 -5.875 6.9375 C-23.46359861 21.08090919 -35.85068634 40.62479902 -47 60 C-47.41266113 60.71542969 -47.82532227 61.43085937 -48.25048828 62.16796875 C-55.90447222 75.59837126 -64.557867 91.01333128 -62 107 C-61.34 107.99 -60.68 108.98 -60 110 C-53.23108926 111.34114642 -47.11635757 109.44569037 -41 106.6875 C-40.18966309 106.33212158 -39.37932617 105.97674316 -38.54443359 105.6105957 C-24.12723136 99.08054972 -11.74529039 90.53139166 0 80 C1.0521193 79.13488799 2.10681158 78.2728956 3.1640625 77.4140625 C9.45711185 72.05716925 13.00302064 65.61585343 16 58 C5.30488837 61.86844463 -2.75618615 69.63427922 -9 79 C-9.99 79 -10.98 79 -12 79 C-10.7157583 70.48816549 -4.51709852 63.34966552 2 58 C5.22988526 55.78596575 8.55101709 53.85067376 12 52 C13.134375 51.38125 14.26875 50.7625 15.4375 50.125 C21.46804119 48.22061857 27.31630639 47.84232825 33.1875 50.375 C35.51896655 53.75160673 35.95519105 55.90607228 35.72265625 59.984375 C32.74564456 72.40736434 22.02659764 83.57046488 14.27758789 93.33691406 C13.1201647 94.84357693 12.05388095 96.41917858 11 98 C11.77085937 98.25394531 12.54171875 98.50789063 13.3359375 98.76953125 C14.84027344 99.28580078 14.84027344 99.28580078 16.375 99.8125 C17.37273437 100.14894531 18.37046875 100.48539062 19.3984375 100.83203125 C22 102 22 102 24 105 C24.99626687 112.17080459 24.22833073 118.10697214 20 124 C9.42947412 137.83976069 -11.55977581 156.32735917 -29 160 C-23.86320077 168.50407129 -23.86320077 168.50407129 -16 174 C-7.03695879 175.04922276 0.009608 174.00069146 8 170 C10.14932626 168.94411636 12.30202389 167.8961139 14.4597168 166.85742188 C15.95866669 166.13263382 17.45139519 165.39479976 18.93676758 164.64257812 C23.14401472 162.58252144 26.19941479 161.5471146 31 162 C29.57547478 166.27357567 26.40321846 167.82917012 22.8125 170.25 C21.74286011 170.97872314 21.74286011 170.97872314 20.65161133 171.72216797 C9.91894325 178.88836463 -0.72976983 185.22466311 -14 184 C-22.29277497 181.9041896 -29.3527788 174.1582712 -33.79296875 167.18359375 C-34.19128906 166.46300781 -34.58960938 165.74242187 -35 165 C-36.3983022 165.42954381 -37.79353907 165.86907034 -39.1875 166.3125 C-39.96480469 166.55613281 -40.74210937 166.79976562 -41.54296875 167.05078125 C-48.56304593 169.76283015 -51.55301699 174.05025872 -55.6875 180.125 C-56.29891846 181.00704102 -56.91033691 181.88908203 -57.5402832 182.79785156 C-62.00890469 189.3250909 -66.11933855 196.01574983 -69.89135742 202.96923828 C-70.84922743 204.69211016 -71.91492795 206.35427186 -73 208 C-73.99 208 -74.98 208 -76 208 C-75.45459042 202.07841031 -73.05363123 197.27848475 -70.5 192 C-70.05076172 191.06663818 -69.60152344 190.13327637 -69.13867188 189.17163086 C-65.29995733 181.34370365 -60.99658489 174.1440897 -56 167 C-55.5978125 166.4220166 -55.195625 165.8440332 -54.78125 165.24853516 C-45.91481819 152.54113737 -36.47113534 140.25908958 -27 128 C-27.66 128 -28.32 128 -29 128 C-29.35417272 123.57284095 -29.33804029 120.25151442 -26.5859375 116.6015625 C-21.65006137 111.61705705 -15.62924472 107.7356349 -9.375 104.625 C-3.70648641 101.59910307 -0.028746 96.90456035 4 92 C4.73089844 91.11828125 5.46179688 90.2365625 6.21484375 89.328125 C7.70790237 87.51231381 9.19217992 85.68924976 10.66796875 83.859375 C12.29445656 81.86508844 13.93342692 79.90088979 15.61328125 77.953125 C24.57062097 68.20234203 24.57062097 68.20234203 28 56 C26.35 55.67 24.7 55.34 23 55 C23.0825 55.99 23.165 56.98 23.25 58 C23.23030063 65.48763626 18.18239578 71.50648494 13.4375 76.875 C12.90938721 77.47868408 12.38127441 78.08236816 11.8371582 78.7043457 C-3.54871859 96.01661795 -31.0910358 119.52378841 -55.375 121.23828125 C-57.169375 121.27501953 -57.169375 121.27501953 -59 121.3125 C-60.794375 121.36857422 -60.794375 121.36857422 -62.625 121.42578125 C-66.63408989 120.92000486 -68.17230174 119.82769826 -71 117 C-75.04318437 110.02899247 -74.94349884 103.90934963 -73.07421875 96.1640625 C-65.99137255 71.75885494 -51.29513486 49.25788665 -35 30 C-34.12821829 28.9445783 -33.25717617 27.88854542 -32.38671875 26.83203125 C-10.15546265 0 -10.15546265 0 0 0 Z " fill="#0B0B0B" transform="translate(148,17)"/>
<path d="M0 0 C18.43718055 -0.87449078 18.43718055 -0.87449078 25.546875 5.35546875 C31.04037493 11.38216133 32.44861473 17.61220539 32.38476562 25.42626953 C32.3901384 26.23856018 32.39551117 27.05085083 32.40104675 27.88775635 C32.41078119 29.63972734 32.41378209 31.3917463 32.41069031 33.14374161 C32.40619245 35.91831561 32.42026626 38.69225854 32.43908691 41.46676636 C32.48199653 48.35297535 32.49312312 55.23916903 32.50531006 62.12548828 C32.51684155 67.95542739 32.54040237 73.78507681 32.58000183 79.61489487 C32.59356401 82.34536694 32.58940375 85.07544623 32.58459473 87.80593872 C32.59393511 89.48147075 32.60410387 91.15699844 32.61523438 92.83251953 C32.60908615 93.58900787 32.60293793 94.34549622 32.59660339 95.12490845 C32.64857237 99.58230854 33.23736111 102.4589668 36 106 C38.70183055 107.35091528 41.11808206 107.33858058 44.125 107.5625 C45.76855469 107.68818359 45.76855469 107.68818359 47.4453125 107.81640625 C48.28835937 107.87699219 49.13140625 107.93757813 50 108 C50.042721 109.66611905 50.04063832 111.33382885 50 113 C47.83301761 115.16698239 42.91521136 114.32211799 39.98046875 114.42578125 C36.24752135 115.14497295 35.26932344 115.96724692 33 119 C32.61231499 121.80540015 32.46562809 124.21920677 32.50170898 127.0222168 C32.49619019 127.8276442 32.49067139 128.63307159 32.48498535 129.46290588 C32.47566827 131.21000927 32.47555781 132.95718057 32.48357964 134.70429039 C32.49621417 137.47563353 32.48491381 140.24598116 32.46754456 143.01728821 C32.44081749 147.90800828 32.43524931 152.79848482 32.43664551 157.68927002 C32.43887132 165.49917714 32.42458189 173.30878076 32.38105965 181.11857033 C32.37126983 183.83781178 32.37991641 186.5565715 32.38975525 189.27580261 C32.38360509 190.96080838 32.37669137 192.64581159 32.36889648 194.33081055 C32.37661575 195.07763092 32.38433502 195.82445129 32.39228821 196.59390259 C32.32677507 203.51002945 30.61608277 209.48081215 26.875 215.3125 C20.048375 221.69391033 12.02086323 223.06347984 2.98828125 223.23046875 C1 223 1 223 -1 221 C-0.46428571 217.46428571 -0.46428571 217.46428571 1 216 C3.03998851 215.86695727 5.08230011 215.76892881 7.125 215.6875 C12.95511214 215.25919132 16.47159023 214.74086024 21 211 C23.82313557 205.68641311 24.4294713 201.46695564 24.36889648 195.51367188 C24.37266296 194.69484024 24.37642944 193.87600861 24.38031006 193.03236389 C24.3867146 191.26565187 24.38643888 189.49890534 24.38012505 187.73219299 C24.37097321 184.9318658 24.38128464 182.13220222 24.39674377 179.33190918 C24.43673411 171.37444008 24.4380456 163.41702558 24.43579102 155.45947266 C24.43573984 150.58184283 24.45494308 145.70457278 24.48512459 140.82704163 C24.49592016 138.07549525 24.48383868 135.32464386 24.47129822 132.57312012 C24.48020557 130.87751588 24.49028098 129.18191725 24.50170898 127.48632812 C24.49196548 126.7276796 24.48222198 125.96903107 24.47218323 125.18739319 C24.54601476 119.67770562 26.12805021 116.66938511 29 112 C28.37762321 109.32377982 27.41759683 107.63887421 25.93101501 105.36457825 C24.57084742 101.91004459 24.71662099 98.51275876 24.72875977 94.85424805 C24.72353302 94.03585449 24.71830627 93.21746094 24.71292114 92.37426758 C24.70269018 90.59932558 24.69690231 88.82435367 24.69503975 87.04938316 C24.69137375 84.23678497 24.67463983 81.42453864 24.65428162 78.61201477 C24.59889757 70.6161657 24.56821591 62.62026453 24.54370117 54.62426758 C24.52779443 49.73067135 24.49754082 44.83732416 24.45893669 39.94385719 C24.44731219 38.08243269 24.44135656 36.22096359 24.44125557 34.35950279 C24.44106274 31.75071726 24.42273897 29.1426146 24.40063477 26.53393555 C24.40521194 25.77057388 24.40978912 25.00721222 24.414505 24.22071838 C24.34597228 19.1130276 23.40736573 15.53214532 21 11 C15.64489525 6.57621782 10.61062558 6.47741803 3.79296875 6.2734375 C1 6 1 6 -1 4 C-0.625 1.875 -0.625 1.875 0 0 Z " fill="#101010" transform="translate(186,17)"/>
<path d="M0 0 C1.03253906 0.01353516 1.03253906 0.01353516 2.0859375 0.02734375 C3.76577838 0.05067487 5.44543746 0.08653674 7.125 0.125 C7.75 2 7.75 2 8.125 4.125 C5.30892014 6.94107986 3.3029226 6.39227217 -0.625 6.5 C-8.09652342 6.900352 -8.09652342 6.900352 -13.875 11.125 C-16.55474459 16.30182749 -17.30838289 20.57313508 -17.25976562 26.41186523 C-17.2651384 27.20958344 -17.27051117 28.00730164 -17.27604675 28.82919312 C-17.28578105 30.55005418 -17.28878213 32.27096408 -17.28569031 33.9918499 C-17.28118822 36.72104444 -17.29527974 39.44959878 -17.31408691 42.1787262 C-17.35076315 47.97330725 -17.36456065 53.76782 -17.375 59.5625 C-17.38710561 66.27763337 -17.40875862 72.9924526 -17.45500183 79.70744514 C-17.46851131 82.38626279 -17.46441252 85.06467703 -17.45959473 87.74351501 C-17.46894131 89.39859521 -17.47911163 91.05367102 -17.49023438 92.70874023 C-17.48408615 93.44509201 -17.47793793 94.18144379 -17.47160339 94.94010925 C-17.52546513 99.53168202 -18.36818312 103.07603105 -20.23227692 107.28025913 C-21.09434071 109.42896739 -21.09434071 109.42896739 -20.875 113.125 C-20.14391273 114.47520737 -20.14391273 114.47520737 -19.39805603 115.85269165 C-17.55505026 119.81241674 -17.46272427 123.2072525 -17.50610352 127.48193359 C-17.50233704 128.29901291 -17.49857056 129.11609222 -17.49468994 129.95793152 C-17.48827688 131.72411327 -17.48856922 133.49032955 -17.49487495 135.25651169 C-17.50401591 138.05703401 -17.49372676 140.85689116 -17.47825623 143.65737915 C-17.43824197 151.61662813 -17.43695134 159.57582338 -17.43920898 167.53515625 C-17.43926021 172.41163759 -17.42002969 177.2877598 -17.38987541 182.16414261 C-17.37909042 184.91397952 -17.39115677 187.66311922 -17.40370178 190.41293335 C-17.39479221 192.11172156 -17.38471603 193.81050419 -17.37329102 195.50927734 C-17.38790627 196.64421379 -17.38790627 196.64421379 -17.40281677 197.80207825 C-17.32948932 203.29573865 -15.91311984 207.52365548 -12.875 212.125 C-9.0457269 215.39516022 -5.62247628 215.52629424 -0.6875 215.6875 C5.91567245 215.91567245 5.91567245 215.91567245 8.125 218.125 C7.75 220.25 7.75 220.25 7.125 222.125 C-11.93028735 222.79491245 -11.93028735 222.79491245 -17.61328125 217.5078125 C-24.13893589 210.25016318 -25.0279764 203.50964231 -25.00097656 193.88818359 C-25.0028447 193.08418625 -25.00471283 192.2801889 -25.00663757 191.451828 C-25.01062506 189.71509495 -25.01271489 187.9783567 -25.01309967 186.24161911 C-25.01653067 182.54860295 -25.03790402 178.85576044 -25.05833054 175.16280556 C-25.09630254 168.29470986 -25.12760762 161.42680663 -25.12548828 154.55859375 C-25.12470243 149.77278578 -25.14800123 144.98762375 -25.1873703 140.20198441 C-25.1978428 138.37994921 -25.19934514 136.55783959 -25.19171906 134.73579025 C-25.18212346 132.19081997 -25.20322374 129.64781949 -25.23144531 127.10302734 C-25.22124863 126.35072342 -25.21105194 125.59841949 -25.20054626 124.82331848 C-25.27608602 121.02948606 -25.56867691 119.44445371 -28.23651123 116.66226196 C-31.22419568 114.92154822 -33.19039054 114.57209956 -36.625 114.4375 C-41.80487377 114.19512623 -41.80487377 114.19512623 -42.875 113.125 C-42.91563832 111.45882885 -42.917721 109.79111905 -42.875 108.125 C-41.77091797 108.06892578 -41.77091797 108.06892578 -40.64453125 108.01171875 C-33.21709788 107.66668556 -33.21709788 107.66668556 -26.875 104.125 C-25.64914975 100.44744924 -25.73843097 97.06085896 -25.74902344 93.23217773 C-25.7471553 92.42850266 -25.74528717 91.62482758 -25.74336243 90.79679871 C-25.739358 89.05020404 -25.73728355 87.30360414 -25.73690033 85.55700493 C-25.73347996 81.83448754 -25.71210569 78.11214403 -25.69166946 74.38968754 C-25.65370137 67.46085965 -25.62237777 60.5322153 -25.62451172 53.60327148 C-25.62530198 48.78199611 -25.60179781 43.961355 -25.5626297 39.14024544 C-25.5522123 37.30921345 -25.55061407 35.47810787 -25.55828094 33.6470623 C-25.63377461 13.60876908 -25.63377461 13.60876908 -18.43255615 5.5009613 C-13.01659434 0.51643021 -7.07135536 -0.1781543 0 0 Z " fill="#0F0F0F" transform="translate(62.875,16.875)"/>
<path d="M0 0 C1.2684375 0.04640625 1.2684375 0.04640625 2.5625 0.09375 C3.408125 0.1040625 4.25375 0.114375 5.125 0.125 C7.95600287 0.66942363 9.40901518 1.71942062 11.5625 3.59375 C9.48888223 17.64004177 -4.77543752 27.9931698 -15.4375 35.96875 C-33.78084236 49.46246204 -33.78084236 49.46246204 -43.4375 51.59375 C-40.37018992 46.81170272 -36.97829923 42.42003429 -33.375 38.03125 C-32.51890137 36.98287964 -32.51890137 36.98287964 -31.64550781 35.91333008 C-27.59278384 30.96443879 -23.48333543 26.06597745 -19.33740234 21.19506836 C-11.62128937 12.23471944 -11.62128937 12.23471944 -4.49609375 2.8125 C-2.4375 0.59375 -2.4375 0.59375 0 0 Z " fill="#F5F5F5" transform="translate(152.4375,123.40625)"/>
<path d="M0 0 C1.65 0 3.3 0 5 0 C5.91474081 3.01864466 6.20542419 4.51269675 4.9609375 7.46484375 C-3.68307233 20.94183445 -3.68307233 20.94183445 -9 23 C-10.33676205 23.65976469 -11.6705586 24.32560561 -13 25 C-12.62488281 24.5875 -12.24976563 24.175 -11.86328125 23.75 C-5.22737482 16.26162196 -1.37847241 10.04021694 0 0 Z " fill="#E5E5E5" transform="translate(171,72)"/>
<path d="M0 0 C0 4.13781054 -1.71509607 5.20919996 -4.5 8.1875 C-5.3353125 9.08855469 -6.170625 9.98960937 -7.03125 10.91796875 C-7.6809375 11.60503906 -8.330625 12.29210937 -9 13 C-9.33 12.01 -9.66 11.02 -10 10 C-8.671875 8.02734375 -8.671875 8.02734375 -6.75 5.9375 C-6.12609375 5.24527344 -5.5021875 4.55304688 -4.859375 3.83984375 C-3 2 -3 2 0 0 Z " fill="#CDCDCD" transform="translate(132,131)"/>
<path d="M0 0 C0.33 0.99 0.66 1.98 1 3 C0.443125 3.4125 -0.11375 3.825 -0.6875 4.25 C-3.16195956 6.12256399 -5.5835229 8.05339344 -8 10 C-8.66 9.67 -9.32 9.34 -10 9 C-6.7 6.03 -3.4 3.06 0 0 Z " fill="#DDDDDD" transform="translate(168,87)"/>
</svg>
